<svg width="17" height="30" viewBox="0 0 17 30" fill="none" xmlns="http://www.w3.org/2000/svg">
<path d="M15.6086 0.006242L11.7183 0C7.3477 0 4.52322 2.89785 4.52322 7.38304V10.7871H0.61171C0.273709 10.7871 0 11.0611 0 11.3991V16.3313C0 16.6693 0.274021 16.943 0.61171 16.943H4.52322V29.3883C4.52322 29.7263 4.79693 30 5.13493 30H10.2383C10.5763 30 10.85 29.726 10.85 29.3883V16.943H15.4235C15.7615 16.943 16.0352 16.6693 16.0352 16.3313L16.0371 11.3991C16.0371 11.2369 15.9725 11.0814 15.858 10.9666C15.7434 10.8517 15.5874 10.7871 15.4251 10.7871H10.85V7.90144C10.85 6.51447 11.1806 5.81037 12.9873 5.81037L15.608 5.80943C15.9457 5.80943 16.2194 5.53541 16.2194 5.19772V0.617958C16.2194 0.280578 15.946 0.0068662 15.6086 0.006242Z" fill="white"/>
</svg>
