<svg width="92" height="36" viewBox="0 0 92 36" fill="none" xmlns="http://www.w3.org/2000/svg">
<path d="M2.39702 29V7.18182H10.174C11.8714 7.18182 13.2777 7.49077 14.3928 8.10866C15.5078 8.72656 16.3423 9.57173 16.8963 10.6442C17.4503 11.7095 17.7273 12.9098 17.7273 14.245C17.7273 15.5874 17.4467 16.7947 16.8857 17.8672C16.3317 18.9325 15.4936 19.7777 14.3714 20.4027C13.2564 21.0206 11.8537 21.3295 10.1634 21.3295H4.81534V18.5384H9.86506C10.9375 18.5384 11.8075 18.3537 12.4751 17.9844C13.1428 17.608 13.6328 17.0966 13.9453 16.4503C14.2578 15.804 14.4141 15.0689 14.4141 14.245C14.4141 13.4212 14.2578 12.6896 13.9453 12.0504C13.6328 11.4112 13.1392 10.9105 12.4645 10.5483C11.7969 10.1861 10.9162 10.005 9.82244 10.005H5.68892V29H2.39702ZM24.5162 7.18182V29H21.3308V7.18182H24.5162ZM33.5636 29.3622C32.5266 29.3622 31.5891 29.1705 30.7511 28.7869C29.913 28.3963 29.2489 27.8317 28.7589 27.093C28.2759 26.3544 28.0344 25.4489 28.0344 24.3764C28.0344 23.4531 28.212 22.6932 28.5671 22.0966C28.9222 21.5 29.4016 21.0277 30.0053 20.6797C30.609 20.3317 31.2837 20.0689 32.0295 19.8913C32.7752 19.7138 33.5352 19.5788 34.3093 19.4865C35.2894 19.3729 36.0849 19.2805 36.6957 19.2095C37.3065 19.1314 37.7504 19.0071 38.0273 18.8366C38.3043 18.6662 38.4428 18.3892 38.4428 18.0057V17.9311C38.4428 17.0007 38.18 16.2798 37.6545 15.7685C37.136 15.2571 36.3619 15.0014 35.332 15.0014C34.2596 15.0014 33.4144 15.2393 32.7965 15.7152C32.1857 16.1839 31.7631 16.706 31.5288 17.2812L28.5352 16.5994C28.8903 15.6051 29.4087 14.8026 30.0906 14.1918C30.7795 13.5739 31.5714 13.1264 32.4663 12.8494C33.3612 12.5653 34.3022 12.4233 35.2894 12.4233C35.9428 12.4233 36.6353 12.5014 37.3668 12.6577C38.1055 12.8068 38.7944 13.0838 39.4336 13.4886C40.0799 13.8935 40.609 14.4723 41.021 15.2251C41.4329 15.9709 41.6388 16.9403 41.6388 18.1335V29H38.5281V26.7628H38.4002C38.1942 27.1747 37.8853 27.5795 37.4734 27.9773C37.0614 28.375 36.5323 28.7053 35.886 28.968C35.2397 29.2308 34.4656 29.3622 33.5636 29.3622ZM34.256 26.8054C35.1367 26.8054 35.8896 26.6314 36.5146 26.2834C37.1467 25.9354 37.6261 25.4808 37.9528 24.9197C38.2866 24.3516 38.4535 23.7443 38.4535 23.098V20.9886C38.3398 21.1023 38.1197 21.2088 37.793 21.3082C37.4734 21.4006 37.1076 21.4822 36.6957 21.5533C36.2837 21.6172 35.8825 21.6776 35.4918 21.7344C35.1012 21.7841 34.7745 21.8267 34.5117 21.8622C33.8938 21.9403 33.3292 22.0717 32.8178 22.2564C32.3136 22.4411 31.9087 22.7074 31.6033 23.0554C31.305 23.3963 31.1559 23.8509 31.1559 24.419C31.1559 25.2074 31.4471 25.804 32.0295 26.2088C32.6119 26.6065 33.354 26.8054 34.256 26.8054ZM49.0669 19.2841V29H45.8816V12.6364H48.9391V15.2997H49.1415C49.5179 14.4332 50.1074 13.7372 50.91 13.2116C51.7196 12.6861 52.7388 12.4233 53.9675 12.4233C55.0826 12.4233 56.0591 12.6577 56.8972 13.1264C57.7353 13.5881 58.3851 14.277 58.8468 15.1932C59.3084 16.1094 59.5392 17.2422 59.5392 18.5916V29H56.3539V18.9751C56.3539 17.7891 56.0449 16.8622 55.427 16.1946C54.8091 15.5199 53.9604 15.1825 52.8809 15.1825C52.1422 15.1825 51.4853 15.3423 50.91 15.6619C50.3418 15.9815 49.8908 16.4503 49.557 17.0682C49.2303 17.679 49.0669 18.4176 49.0669 19.2841ZM71.4498 12.6364V15.1932H62.5115V12.6364H71.4498ZM64.9086 8.71591H68.0939V24.1953C68.0939 24.8132 68.1863 25.2784 68.3709 25.5909C68.5556 25.8963 68.7935 26.1058 69.0847 26.2195C69.383 26.326 69.7061 26.3793 70.0542 26.3793C70.3098 26.3793 70.5336 26.3615 70.7253 26.326C70.9171 26.2905 71.0662 26.2621 71.1728 26.2408L71.748 28.8722C71.5634 28.9432 71.3006 29.0142 70.9597 29.0852C70.6188 29.1634 70.1926 29.206 69.6813 29.2131C68.8432 29.2273 68.062 29.0781 67.3375 28.7656C66.6131 28.4531 66.0272 27.9702 65.5797 27.3168C65.1323 26.6634 64.9086 25.843 64.9086 24.8558V8.71591ZM73.1277 10.0156V7.18182H90.0133V10.0156H83.2058V29H79.9245V10.0156H73.1277Z" fill="white"/>
<g clip-path="url(#clip0_1961_6417)">
<path d="M55.8524 6.29381L54.0503 5.66323C53.3312 5.4115 52.5409 5.46196 51.8596 5.80295C51.1783 6.14405 50.6643 6.74649 50.4349 7.47301L49.9634 8.96612L49.4992 9.3142V6.19608C49.4986 5.78053 49.7065 5.39225 50.0525 5.16221L49.8121 4.80176C49.3455 5.11218 49.0653 5.63562 49.0659 6.19608V6.62518L48.7859 6.34511L48.4796 6.65141L49.0659 7.23778V11.9962L48.6327 11.7796V11.334C48.6326 10.2444 48.1088 9.22112 47.2248 8.58398C46.3406 7.94695 45.2043 7.7736 44.1705 8.11829L43.149 8.45876C43.0601 8.48805 43 8.57097 43 8.66458C43 8.75818 43.0601 8.8411 43.149 8.8704L43.381 8.94772C44.4928 9.31737 45.5303 9.88153 46.4449 10.6139L48.2807 12.0824C48.2931 12.0911 48.3065 12.0984 48.3206 12.1041L48.3192 12.107L49.0659 12.4806V12.9966H49.4992V9.85573L50.2789 9.27083L50.2766 9.26787C50.2854 9.26269 50.294 9.25698 50.3022 9.25074C51.6738 7.88349 53.4602 7.00975 55.3816 6.76638L55.8077 6.71318C55.9075 6.70059 55.9854 6.62106 55.9961 6.52111C56.0068 6.42116 55.9472 6.32702 55.8524 6.29381Z" fill="white"/>
<path d="M51.3336 1.83472L51.2321 0.203478C51.2256 0.100884 51.148 0.0169053 51.0462 0.00241517C50.9446 -0.011123 50.8472 0.0477892 50.8121 0.144143L50.1115 2.10485C49.8495 2.83729 49.7156 3.60939 49.7158 4.3873V4.98235C49.7158 5.06992 49.7686 5.14893 49.8495 5.18246C49.9304 5.21588 50.0236 5.19737 50.0856 5.1355C50.9556 4.26514 51.4102 3.0631 51.3336 1.83472Z" fill="white"/>
<path d="M46.2356 2.87144L44.8024 2.39496C44.7283 2.37021 44.6467 2.38724 44.5886 2.43949C44.5307 2.49184 44.5053 2.57128 44.5223 2.64753L44.7606 3.72234C45.1421 5.47606 46.6985 6.72379 48.4932 6.71501H48.6329C48.7526 6.71501 48.8495 6.61803 48.8495 6.4984C48.8509 4.85246 47.7975 3.39086 46.2356 2.87144Z" fill="white"/>
<path d="M47.3007 5.76188C46.4706 5.25103 45.7902 4.53012 45.328 3.67204L44.6449 2.40283C44.5504 2.44355 44.4987 2.54615 44.5223 2.64631L44.7606 3.72111C45.1416 5.47536 46.6981 6.72362 48.4932 6.71495H48.6329C48.6822 6.7141 48.7296 6.69623 48.7671 6.66429L47.3007 5.76188Z" fill="white"/>
<path d="M51.9292 7.29963C51.4728 7.6255 51.1121 8.0676 50.8843 8.58004L50.7842 8.80533C52.0845 7.69076 53.6828 6.98169 55.3818 6.76593L55.7945 6.71484H53.7553C53.1005 6.71463 52.4621 6.91919 51.9292 7.29963Z" fill="white"/>
<path d="M48.5296 12.2125L48.5253 12.1887C48.0945 9.81909 45.9381 8.16151 43.5374 8.35464L43.4366 8.36268L43.149 8.45861C43.0601 8.4879 43 8.57082 43 8.66443C43 8.75803 43.0601 8.84095 43.149 8.87014L43.381 8.94757C44.4928 9.31733 45.5303 9.88149 46.4449 10.6139L48.2807 12.0825C48.2931 12.0912 48.3065 12.0985 48.3206 12.1042L48.3192 12.107L48.5296 12.2125Z" fill="white"/>
</g>
<defs>
<clipPath id="clip0_1961_6417">
<rect width="12.9973" height="12.9966" fill="white" transform="translate(43)"/>
</clipPath>
</defs>
</svg>
